%TF.GenerationSoftware,KiCad,Pcbnew,(6.0.9)*%
%TF.CreationDate,2022-12-14T11:00:14+00:00*%
%TF.ProjectId,ESP8285 PlantLight,45535038-3238-4352-9050-6c616e744c69,rev?*%
%TF.SameCoordinates,Original*%
%TF.FileFunction,Paste,Top*%
%TF.FilePolarity,Positive*%
%FSLAX46Y46*%
G04 Gerber Fmt 4.6, Leading zero omitted, Abs format (unit mm)*
G04 Created by KiCad (PCBNEW (6.0.9)) date 2022-12-14 11:00:14*
%MOMM*%
%LPD*%
G01*
G04 APERTURE LIST*
G04 Aperture macros list*
%AMRoundRect*
0 Rectangle with rounded corners*
0 $1 Rounding radius*
0 $2 $3 $4 $5 $6 $7 $8 $9 X,Y pos of 4 corners*
0 Add a 4 corners polygon primitive as box body*
4,1,4,$2,$3,$4,$5,$6,$7,$8,$9,$2,$3,0*
0 Add four circle primitives for the rounded corners*
1,1,$1+$1,$2,$3*
1,1,$1+$1,$4,$5*
1,1,$1+$1,$6,$7*
1,1,$1+$1,$8,$9*
0 Add four rect primitives between the rounded corners*
20,1,$1+$1,$2,$3,$4,$5,0*
20,1,$1+$1,$4,$5,$6,$7,0*
20,1,$1+$1,$6,$7,$8,$9,0*
20,1,$1+$1,$8,$9,$2,$3,0*%
G04 Aperture macros list end*
%ADD10C,0.010000*%
%ADD11RoundRect,0.030000X0.680000X0.220000X-0.680000X0.220000X-0.680000X-0.220000X0.680000X-0.220000X0*%
%ADD12RoundRect,0.046900X-0.538100X0.288100X-0.538100X-0.288100X0.538100X-0.288100X0.538100X0.288100X0*%
%ADD13RoundRect,0.008100X0.126900X-0.396900X0.126900X0.396900X-0.126900X0.396900X-0.126900X-0.396900X0*%
%ADD14RoundRect,0.008100X-0.396900X-0.126900X0.396900X-0.126900X0.396900X0.126900X-0.396900X0.126900X0*%
%ADD15R,0.550000X0.400000*%
%ADD16R,0.550000X0.550000*%
%ADD17RoundRect,0.135000X0.135000X0.185000X-0.135000X0.185000X-0.135000X-0.185000X0.135000X-0.185000X0*%
%ADD18RoundRect,0.140000X0.140000X0.170000X-0.140000X0.170000X-0.140000X-0.170000X0.140000X-0.170000X0*%
%ADD19RoundRect,0.140000X0.170000X-0.140000X0.170000X0.140000X-0.170000X0.140000X-0.170000X-0.140000X0*%
%ADD20RoundRect,0.250000X-0.850000X0.350000X-0.850000X-0.350000X0.850000X-0.350000X0.850000X0.350000X0*%
%ADD21RoundRect,0.135000X-0.135000X-0.185000X0.135000X-0.185000X0.135000X0.185000X-0.135000X0.185000X0*%
%ADD22RoundRect,0.140000X-0.170000X0.140000X-0.170000X-0.140000X0.170000X-0.140000X0.170000X0.140000X0*%
%ADD23RoundRect,0.067500X0.067500X-0.067500X0.067500X0.067500X-0.067500X0.067500X-0.067500X-0.067500X0*%
%ADD24RoundRect,0.140000X-0.140000X-0.170000X0.140000X-0.170000X0.140000X0.170000X-0.140000X0.170000X0*%
%ADD25R,1.400000X1.200000*%
%ADD26R,0.900000X1.500000*%
%ADD27RoundRect,0.067500X-0.067500X0.067500X-0.067500X-0.067500X0.067500X-0.067500X0.067500X0.067500X0*%
%ADD28RoundRect,0.135000X0.185000X-0.135000X0.185000X0.135000X-0.185000X0.135000X-0.185000X-0.135000X0*%
%ADD29RoundRect,0.225000X0.250000X-0.225000X0.250000X0.225000X-0.250000X0.225000X-0.250000X-0.225000X0*%
%ADD30RoundRect,0.150000X-0.150000X0.587500X-0.150000X-0.587500X0.150000X-0.587500X0.150000X0.587500X0*%
%ADD31RoundRect,0.225000X-0.250000X0.225000X-0.250000X-0.225000X0.250000X-0.225000X0.250000X0.225000X0*%
%ADD32RoundRect,0.200000X0.200000X0.275000X-0.200000X0.275000X-0.200000X-0.275000X0.200000X-0.275000X0*%
%ADD33RoundRect,0.067500X0.067500X0.067500X-0.067500X0.067500X-0.067500X-0.067500X0.067500X-0.067500X0*%
%ADD34R,0.630000X0.500000*%
%ADD35R,0.570000X0.738000*%
%ADD36R,0.630000X0.505000*%
G04 APERTURE END LIST*
%TO.C,U2*%
G36*
X155602000Y-76354000D02*
G01*
X153262000Y-76354000D01*
X153262000Y-74014000D01*
X155602000Y-74014000D01*
X155602000Y-76354000D01*
G37*
D10*
X155602000Y-76354000D02*
X153262000Y-76354000D01*
X153262000Y-74014000D01*
X155602000Y-74014000D01*
X155602000Y-76354000D01*
%TD*%
D11*
%TO.C,U4*%
X151513000Y-89596000D03*
X151513000Y-88646000D03*
X151513000Y-87696000D03*
X149223000Y-87696000D03*
X149223000Y-88646000D03*
X149223000Y-89596000D03*
%TD*%
D12*
%TO.C,U3*%
X154228000Y-62052000D03*
X154228000Y-62992000D03*
X154228000Y-63932000D03*
X156668000Y-63932000D03*
X156668000Y-62052000D03*
%TD*%
D13*
%TO.C,U2*%
X152682000Y-77629000D03*
X153182000Y-77629000D03*
X153682000Y-77629000D03*
X154182000Y-77629000D03*
X154682000Y-77629000D03*
X155182000Y-77629000D03*
X155682000Y-77629000D03*
X156182000Y-77629000D03*
X156182000Y-72739000D03*
X155682000Y-72739000D03*
X155182000Y-72739000D03*
X154682000Y-72739000D03*
X154182000Y-72739000D03*
X153682000Y-72739000D03*
X153182000Y-72739000D03*
X152682000Y-72739000D03*
D14*
X151987000Y-73434000D03*
X151987000Y-73934000D03*
X151987000Y-74434000D03*
X151987000Y-74934000D03*
X151987000Y-75434000D03*
X151987000Y-75934000D03*
X151987000Y-76434000D03*
X151987000Y-76934000D03*
X156877000Y-76934000D03*
X156877000Y-76434000D03*
X156877000Y-75934000D03*
X156877000Y-75434000D03*
X156877000Y-74934000D03*
X156877000Y-74434000D03*
X156877000Y-73934000D03*
X156877000Y-73434000D03*
%TD*%
D15*
%TO.C,U1*%
X150248000Y-58100000D03*
X150248000Y-57150000D03*
X150248000Y-56200000D03*
D16*
X147948000Y-56200000D03*
X147948000Y-57150000D03*
X147948000Y-58100000D03*
%TD*%
D17*
%TO.C,R14*%
X151866000Y-86360000D03*
X150846000Y-86360000D03*
%TD*%
D18*
%TO.C,R15*%
X153896000Y-86360000D03*
X152936000Y-86360000D03*
%TD*%
D19*
%TO.C,C19*%
X147574000Y-88618000D03*
X147574000Y-87658000D03*
%TD*%
D20*
%TO.C,AE1*%
X146050000Y-74112000D03*
X146050000Y-79812000D03*
%TD*%
D21*
%TO.C,R13*%
X150874000Y-90932000D03*
X151894000Y-90932000D03*
%TD*%
D22*
%TO.C,C16*%
X153670000Y-48796000D03*
X153670000Y-49756000D03*
%TD*%
%TO.C,C1*%
X146812000Y-58194000D03*
X146812000Y-59154000D03*
%TD*%
D19*
%TO.C,C4*%
X152908000Y-62964000D03*
X152908000Y-62004000D03*
%TD*%
%TO.C,C17*%
X150622000Y-72616000D03*
X150622000Y-71656000D03*
%TD*%
D23*
%TO.C,R2*%
X152908000Y-79989000D03*
X152908000Y-80539000D03*
%TD*%
D19*
%TO.C,C15*%
X149606000Y-72588000D03*
X149606000Y-71628000D03*
%TD*%
D24*
%TO.C,R12*%
X152936000Y-90932000D03*
X153896000Y-90932000D03*
%TD*%
D19*
%TO.C,R1*%
X151414000Y-59158000D03*
X151414000Y-58198000D03*
%TD*%
D22*
%TO.C,C8*%
X148590000Y-71628000D03*
X148590000Y-72588000D03*
%TD*%
D25*
%TO.C,Y1*%
X154264000Y-70446000D03*
X156464000Y-70446000D03*
X156464000Y-68746000D03*
X154264000Y-68746000D03*
%TD*%
D22*
%TO.C,C18*%
X153670000Y-107724000D03*
X153670000Y-108684000D03*
%TD*%
%TO.C,C5*%
X147574000Y-71628000D03*
X147574000Y-72588000D03*
%TD*%
D21*
%TO.C,R11*%
X153922000Y-65278000D03*
X154942000Y-65278000D03*
%TD*%
D26*
%TO.C,D1*%
X158876000Y-45302000D03*
X155576000Y-45302000D03*
X155576000Y-50202000D03*
X158876000Y-50202000D03*
%TD*%
D27*
%TO.C,C13*%
X148844000Y-74443000D03*
X148844000Y-73893000D03*
%TD*%
D28*
%TO.C,R5*%
X156464000Y-81028000D03*
X156464000Y-80008000D03*
%TD*%
D29*
%TO.C,C14*%
X158242000Y-63513000D03*
X158242000Y-61963000D03*
%TD*%
D26*
%TO.C,D2*%
X145924000Y-50202000D03*
X149224000Y-50202000D03*
X149224000Y-45302000D03*
X145924000Y-45302000D03*
%TD*%
D27*
%TO.C,C9*%
X157904000Y-69109000D03*
X157904000Y-68559000D03*
%TD*%
D28*
%TO.C,R3*%
X155448000Y-81028000D03*
X155448000Y-80008000D03*
%TD*%
D17*
%TO.C,R7*%
X153418000Y-58674000D03*
X152398000Y-58674000D03*
%TD*%
D30*
%TO.C,Q1*%
X150048000Y-59514500D03*
X148148000Y-59514500D03*
X149098000Y-61389500D03*
%TD*%
D31*
%TO.C,C12*%
X146304000Y-70853000D03*
X146304000Y-72403000D03*
%TD*%
D29*
%TO.C,C3*%
X151638000Y-63513000D03*
X151638000Y-61963000D03*
%TD*%
D19*
%TO.C,C11*%
X151102000Y-49756000D03*
X151102000Y-48796000D03*
%TD*%
D31*
%TO.C,C2*%
X154178000Y-80251000D03*
X154178000Y-81801000D03*
%TD*%
D32*
%TO.C,FB1*%
X154495000Y-60452000D03*
X152845000Y-60452000D03*
%TD*%
D28*
%TO.C,R6*%
X151384000Y-57152000D03*
X151384000Y-56132000D03*
%TD*%
D24*
%TO.C,R12*%
X158270000Y-74422000D03*
X159230000Y-74422000D03*
%TD*%
D28*
%TO.C,R8*%
X146812000Y-57152000D03*
X146812000Y-56132000D03*
%TD*%
D19*
%TO.C,C6*%
X151130000Y-108656000D03*
X151130000Y-107696000D03*
%TD*%
D23*
%TO.C,C10*%
X152824000Y-70083000D03*
X152824000Y-70633000D03*
%TD*%
D26*
%TO.C,D4*%
X158876000Y-107278000D03*
X155576000Y-107278000D03*
X155576000Y-112178000D03*
X158876000Y-112178000D03*
%TD*%
%TO.C,D3*%
X145924000Y-112178000D03*
X149224000Y-112178000D03*
X149224000Y-107278000D03*
X145924000Y-107278000D03*
%TD*%
D33*
%TO.C,L1*%
X150135000Y-73914000D03*
X149585000Y-73914000D03*
%TD*%
D27*
%TO.C,C7*%
X150876000Y-73893000D03*
X150876000Y-74443000D03*
%TD*%
D21*
%TO.C,R9*%
X149604000Y-70612000D03*
X150624000Y-70612000D03*
%TD*%
D28*
%TO.C,R4*%
X157480000Y-81028000D03*
X157480000Y-80008000D03*
%TD*%
D34*
%TO.C,Q2*%
X157396000Y-57988000D03*
D35*
X156816000Y-58268000D03*
X155866000Y-58268000D03*
D36*
X157396000Y-56685500D03*
X157396000Y-58630500D03*
D35*
X156816000Y-57048000D03*
D34*
X157396000Y-57328000D03*
D35*
X155866000Y-57048000D03*
D34*
X154516000Y-56688000D03*
X154516000Y-57328000D03*
X154516000Y-57988000D03*
X154516000Y-58628000D03*
%TD*%
D21*
%TO.C,R10*%
X151128000Y-82042000D03*
X152148000Y-82042000D03*
%TD*%
M02*
