%TF.GenerationSoftware,KiCad,Pcbnew,(6.0.9)*%
%TF.CreationDate,2022-12-14T11:00:14+00:00*%
%TF.ProjectId,ESP8285 PlantLight,45535038-3238-4352-9050-6c616e744c69,rev?*%
%TF.SameCoordinates,Original*%
%TF.FileFunction,Legend,Top*%
%TF.FilePolarity,Positive*%
%FSLAX46Y46*%
G04 Gerber Fmt 4.6, Leading zero omitted, Abs format (unit mm)*
G04 Created by KiCad (PCBNEW (6.0.9)) date 2022-12-14 11:00:14*
%MOMM*%
%LPD*%
G01*
G04 APERTURE LIST*
%ADD10C,0.150000*%
%ADD11C,0.098716*%
%ADD12C,0.200000*%
%ADD13C,0.127000*%
%ADD14C,0.140000*%
%ADD15C,0.152400*%
%ADD16C,0.100000*%
%ADD17C,0.120000*%
G04 APERTURE END LIST*
D10*
%TO.C,U4*%
X148701095Y-90460380D02*
X148701095Y-91269904D01*
X148748714Y-91365142D01*
X148796333Y-91412761D01*
X148891571Y-91460380D01*
X149082047Y-91460380D01*
X149177285Y-91412761D01*
X149224904Y-91365142D01*
X149272523Y-91269904D01*
X149272523Y-90460380D01*
X150177285Y-90793714D02*
X150177285Y-91460380D01*
X149939190Y-90412761D02*
X149701095Y-91127047D01*
X150320142Y-91127047D01*
D11*
%TO.C,U3*%
X154896415Y-60318525D02*
X154896415Y-60638178D01*
X154915218Y-60675784D01*
X154934021Y-60694587D01*
X154971627Y-60713390D01*
X155046840Y-60713390D01*
X155084446Y-60694587D01*
X155103249Y-60675784D01*
X155122052Y-60638178D01*
X155122052Y-60318525D01*
X155272477Y-60318525D02*
X155516917Y-60318525D01*
X155385295Y-60468950D01*
X155441705Y-60468950D01*
X155479311Y-60487753D01*
X155498114Y-60506556D01*
X155516917Y-60544162D01*
X155516917Y-60638178D01*
X155498114Y-60675784D01*
X155479311Y-60694587D01*
X155441705Y-60713390D01*
X155328886Y-60713390D01*
X155291280Y-60694587D01*
X155272477Y-60675784D01*
D10*
%TO.C,U2*%
X153845095Y-70501380D02*
X153845095Y-71310904D01*
X153892714Y-71406142D01*
X153940333Y-71453761D01*
X154035571Y-71501380D01*
X154226047Y-71501380D01*
X154321285Y-71453761D01*
X154368904Y-71406142D01*
X154416523Y-71310904D01*
X154416523Y-70501380D01*
X154845095Y-70596619D02*
X154892714Y-70549000D01*
X154987952Y-70501380D01*
X155226047Y-70501380D01*
X155321285Y-70549000D01*
X155368904Y-70596619D01*
X155416523Y-70691857D01*
X155416523Y-70787095D01*
X155368904Y-70929952D01*
X154797476Y-71501380D01*
X155416523Y-71501380D01*
%TO.C,U1*%
X146449904Y-56616523D02*
X147097523Y-56616523D01*
X147173714Y-56578428D01*
X147211809Y-56540333D01*
X147249904Y-56464142D01*
X147249904Y-56311761D01*
X147211809Y-56235571D01*
X147173714Y-56197476D01*
X147097523Y-56159380D01*
X146449904Y-56159380D01*
X147249904Y-55359380D02*
X147249904Y-55816523D01*
X147249904Y-55587952D02*
X146449904Y-55587952D01*
X146564190Y-55664142D01*
X146640380Y-55740333D01*
X146678476Y-55816523D01*
%TO.C,R14*%
X150713142Y-87982380D02*
X150379809Y-87506190D01*
X150141714Y-87982380D02*
X150141714Y-86982380D01*
X150522666Y-86982380D01*
X150617904Y-87030000D01*
X150665523Y-87077619D01*
X150713142Y-87172857D01*
X150713142Y-87315714D01*
X150665523Y-87410952D01*
X150617904Y-87458571D01*
X150522666Y-87506190D01*
X150141714Y-87506190D01*
X151665523Y-87982380D02*
X151094095Y-87982380D01*
X151379809Y-87982380D02*
X151379809Y-86982380D01*
X151284571Y-87125238D01*
X151189333Y-87220476D01*
X151094095Y-87268095D01*
X152522666Y-87315714D02*
X152522666Y-87982380D01*
X152284571Y-86934761D02*
X152046476Y-87649047D01*
X152665523Y-87649047D01*
%TO.C,R15*%
X152773142Y-87972380D02*
X152439809Y-87496190D01*
X152201714Y-87972380D02*
X152201714Y-86972380D01*
X152582666Y-86972380D01*
X152677904Y-87020000D01*
X152725523Y-87067619D01*
X152773142Y-87162857D01*
X152773142Y-87305714D01*
X152725523Y-87400952D01*
X152677904Y-87448571D01*
X152582666Y-87496190D01*
X152201714Y-87496190D01*
X153725523Y-87972380D02*
X153154095Y-87972380D01*
X153439809Y-87972380D02*
X153439809Y-86972380D01*
X153344571Y-87115238D01*
X153249333Y-87210476D01*
X153154095Y-87258095D01*
X154630285Y-86972380D02*
X154154095Y-86972380D01*
X154106476Y-87448571D01*
X154154095Y-87400952D01*
X154249333Y-87353333D01*
X154487428Y-87353333D01*
X154582666Y-87400952D01*
X154630285Y-87448571D01*
X154677904Y-87543809D01*
X154677904Y-87781904D01*
X154630285Y-87877142D01*
X154582666Y-87924761D01*
X154487428Y-87972380D01*
X154249333Y-87972380D01*
X154154095Y-87924761D01*
X154106476Y-87877142D01*
%TO.C,C19*%
X146771142Y-88780857D02*
X146818761Y-88828476D01*
X146866380Y-88971333D01*
X146866380Y-89066571D01*
X146818761Y-89209428D01*
X146723523Y-89304666D01*
X146628285Y-89352285D01*
X146437809Y-89399904D01*
X146294952Y-89399904D01*
X146104476Y-89352285D01*
X146009238Y-89304666D01*
X145914000Y-89209428D01*
X145866380Y-89066571D01*
X145866380Y-88971333D01*
X145914000Y-88828476D01*
X145961619Y-88780857D01*
X146866380Y-87828476D02*
X146866380Y-88399904D01*
X146866380Y-88114190D02*
X145866380Y-88114190D01*
X146009238Y-88209428D01*
X146104476Y-88304666D01*
X146152095Y-88399904D01*
X146866380Y-87352285D02*
X146866380Y-87161809D01*
X146818761Y-87066571D01*
X146771142Y-87018952D01*
X146628285Y-86923714D01*
X146437809Y-86876095D01*
X146056857Y-86876095D01*
X145961619Y-86923714D01*
X145914000Y-86971333D01*
X145866380Y-87066571D01*
X145866380Y-87257047D01*
X145914000Y-87352285D01*
X145961619Y-87399904D01*
X146056857Y-87447523D01*
X146294952Y-87447523D01*
X146390190Y-87399904D01*
X146437809Y-87352285D01*
X146485428Y-87257047D01*
X146485428Y-87066571D01*
X146437809Y-86971333D01*
X146390190Y-86923714D01*
X146294952Y-86876095D01*
%TO.C,AE1*%
X148266666Y-78128666D02*
X148266666Y-77652476D01*
X148552380Y-78223904D02*
X147552380Y-77890571D01*
X148552380Y-77557238D01*
X148028571Y-77223904D02*
X148028571Y-76890571D01*
X148552380Y-76747714D02*
X148552380Y-77223904D01*
X147552380Y-77223904D01*
X147552380Y-76747714D01*
X148552380Y-75795333D02*
X148552380Y-76366761D01*
X148552380Y-76081047D02*
X147552380Y-76081047D01*
X147695238Y-76176285D01*
X147790476Y-76271523D01*
X147838095Y-76366761D01*
%TO.C,R13*%
X150741142Y-90214380D02*
X150407809Y-89738190D01*
X150169714Y-90214380D02*
X150169714Y-89214380D01*
X150550666Y-89214380D01*
X150645904Y-89262000D01*
X150693523Y-89309619D01*
X150741142Y-89404857D01*
X150741142Y-89547714D01*
X150693523Y-89642952D01*
X150645904Y-89690571D01*
X150550666Y-89738190D01*
X150169714Y-89738190D01*
X151693523Y-90214380D02*
X151122095Y-90214380D01*
X151407809Y-90214380D02*
X151407809Y-89214380D01*
X151312571Y-89357238D01*
X151217333Y-89452476D01*
X151122095Y-89500095D01*
X152026857Y-89214380D02*
X152645904Y-89214380D01*
X152312571Y-89595333D01*
X152455428Y-89595333D01*
X152550666Y-89642952D01*
X152598285Y-89690571D01*
X152645904Y-89785809D01*
X152645904Y-90023904D01*
X152598285Y-90119142D01*
X152550666Y-90166761D01*
X152455428Y-90214380D01*
X152169714Y-90214380D01*
X152074476Y-90166761D01*
X152026857Y-90119142D01*
%TO.C,C16*%
X155187142Y-49918857D02*
X155234761Y-49966476D01*
X155282380Y-50109333D01*
X155282380Y-50204571D01*
X155234761Y-50347428D01*
X155139523Y-50442666D01*
X155044285Y-50490285D01*
X154853809Y-50537904D01*
X154710952Y-50537904D01*
X154520476Y-50490285D01*
X154425238Y-50442666D01*
X154330000Y-50347428D01*
X154282380Y-50204571D01*
X154282380Y-50109333D01*
X154330000Y-49966476D01*
X154377619Y-49918857D01*
X155282380Y-48966476D02*
X155282380Y-49537904D01*
X155282380Y-49252190D02*
X154282380Y-49252190D01*
X154425238Y-49347428D01*
X154520476Y-49442666D01*
X154568095Y-49537904D01*
X154282380Y-48109333D02*
X154282380Y-48299809D01*
X154330000Y-48395047D01*
X154377619Y-48442666D01*
X154520476Y-48537904D01*
X154710952Y-48585523D01*
X155091904Y-48585523D01*
X155187142Y-48537904D01*
X155234761Y-48490285D01*
X155282380Y-48395047D01*
X155282380Y-48204571D01*
X155234761Y-48109333D01*
X155187142Y-48061714D01*
X155091904Y-48014095D01*
X154853809Y-48014095D01*
X154758571Y-48061714D01*
X154710952Y-48109333D01*
X154663333Y-48204571D01*
X154663333Y-48395047D01*
X154710952Y-48490285D01*
X154758571Y-48537904D01*
X154853809Y-48585523D01*
%TO.C,C1*%
X148329142Y-58840666D02*
X148376761Y-58888285D01*
X148424380Y-59031142D01*
X148424380Y-59126380D01*
X148376761Y-59269238D01*
X148281523Y-59364476D01*
X148186285Y-59412095D01*
X147995809Y-59459714D01*
X147852952Y-59459714D01*
X147662476Y-59412095D01*
X147567238Y-59364476D01*
X147472000Y-59269238D01*
X147424380Y-59126380D01*
X147424380Y-59031142D01*
X147472000Y-58888285D01*
X147519619Y-58840666D01*
X148424380Y-57888285D02*
X148424380Y-58459714D01*
X148424380Y-58174000D02*
X147424380Y-58174000D01*
X147567238Y-58269238D01*
X147662476Y-58364476D01*
X147710095Y-58459714D01*
%TO.C,GND1*%
X159698000Y-66516095D02*
X159650380Y-66611333D01*
X159650380Y-66754190D01*
X159698000Y-66897047D01*
X159793238Y-66992285D01*
X159888476Y-67039904D01*
X160078952Y-67087523D01*
X160221809Y-67087523D01*
X160412285Y-67039904D01*
X160507523Y-66992285D01*
X160602761Y-66897047D01*
X160650380Y-66754190D01*
X160650380Y-66658952D01*
X160602761Y-66516095D01*
X160555142Y-66468476D01*
X160221809Y-66468476D01*
X160221809Y-66658952D01*
X160650380Y-66039904D02*
X159650380Y-66039904D01*
X160650380Y-65468476D01*
X159650380Y-65468476D01*
X160650380Y-64992285D02*
X159650380Y-64992285D01*
X159650380Y-64754190D01*
X159698000Y-64611333D01*
X159793238Y-64516095D01*
X159888476Y-64468476D01*
X160078952Y-64420857D01*
X160221809Y-64420857D01*
X160412285Y-64468476D01*
X160507523Y-64516095D01*
X160602761Y-64611333D01*
X160650380Y-64754190D01*
X160650380Y-64992285D01*
X160650380Y-63468476D02*
X160650380Y-64039904D01*
X160650380Y-63754190D02*
X159650380Y-63754190D01*
X159793238Y-63849428D01*
X159888476Y-63944666D01*
X159936095Y-64039904D01*
%TO.C,C4*%
X152105142Y-62650666D02*
X152152761Y-62698285D01*
X152200380Y-62841142D01*
X152200380Y-62936380D01*
X152152761Y-63079238D01*
X152057523Y-63174476D01*
X151962285Y-63222095D01*
X151771809Y-63269714D01*
X151628952Y-63269714D01*
X151438476Y-63222095D01*
X151343238Y-63174476D01*
X151248000Y-63079238D01*
X151200380Y-62936380D01*
X151200380Y-62841142D01*
X151248000Y-62698285D01*
X151295619Y-62650666D01*
X151533714Y-61793523D02*
X152200380Y-61793523D01*
X151152761Y-62031619D02*
X151867047Y-62269714D01*
X151867047Y-61650666D01*
%TO.C,C17*%
X149819142Y-72778857D02*
X149866761Y-72826476D01*
X149914380Y-72969333D01*
X149914380Y-73064571D01*
X149866761Y-73207428D01*
X149771523Y-73302666D01*
X149676285Y-73350285D01*
X149485809Y-73397904D01*
X149342952Y-73397904D01*
X149152476Y-73350285D01*
X149057238Y-73302666D01*
X148962000Y-73207428D01*
X148914380Y-73064571D01*
X148914380Y-72969333D01*
X148962000Y-72826476D01*
X149009619Y-72778857D01*
X149914380Y-71826476D02*
X149914380Y-72397904D01*
X149914380Y-72112190D02*
X148914380Y-72112190D01*
X149057238Y-72207428D01*
X149152476Y-72302666D01*
X149200095Y-72397904D01*
X148914380Y-71493142D02*
X148914380Y-70826476D01*
X149914380Y-71255047D01*
%TO.C,R2*%
X152360380Y-80430666D02*
X151884190Y-80764000D01*
X152360380Y-81002095D02*
X151360380Y-81002095D01*
X151360380Y-80621142D01*
X151408000Y-80525904D01*
X151455619Y-80478285D01*
X151550857Y-80430666D01*
X151693714Y-80430666D01*
X151788952Y-80478285D01*
X151836571Y-80525904D01*
X151884190Y-80621142D01*
X151884190Y-81002095D01*
X151455619Y-80049714D02*
X151408000Y-80002095D01*
X151360380Y-79906857D01*
X151360380Y-79668761D01*
X151408000Y-79573523D01*
X151455619Y-79525904D01*
X151550857Y-79478285D01*
X151646095Y-79478285D01*
X151788952Y-79525904D01*
X152360380Y-80097333D01*
X152360380Y-79478285D01*
%TO.C,C15*%
X148803142Y-72750857D02*
X148850761Y-72798476D01*
X148898380Y-72941333D01*
X148898380Y-73036571D01*
X148850761Y-73179428D01*
X148755523Y-73274666D01*
X148660285Y-73322285D01*
X148469809Y-73369904D01*
X148326952Y-73369904D01*
X148136476Y-73322285D01*
X148041238Y-73274666D01*
X147946000Y-73179428D01*
X147898380Y-73036571D01*
X147898380Y-72941333D01*
X147946000Y-72798476D01*
X147993619Y-72750857D01*
X148898380Y-71798476D02*
X148898380Y-72369904D01*
X148898380Y-72084190D02*
X147898380Y-72084190D01*
X148041238Y-72179428D01*
X148136476Y-72274666D01*
X148184095Y-72369904D01*
X147898380Y-70893714D02*
X147898380Y-71369904D01*
X148374571Y-71417523D01*
X148326952Y-71369904D01*
X148279333Y-71274666D01*
X148279333Y-71036571D01*
X148326952Y-70941333D01*
X148374571Y-70893714D01*
X148469809Y-70846095D01*
X148707904Y-70846095D01*
X148803142Y-70893714D01*
X148850761Y-70941333D01*
X148898380Y-71036571D01*
X148898380Y-71274666D01*
X148850761Y-71369904D01*
X148803142Y-71417523D01*
%TO.C,3.3V1*%
X159650380Y-62150380D02*
X159650380Y-61531333D01*
X160031333Y-61864666D01*
X160031333Y-61721809D01*
X160078952Y-61626571D01*
X160126571Y-61578952D01*
X160221809Y-61531333D01*
X160459904Y-61531333D01*
X160555142Y-61578952D01*
X160602761Y-61626571D01*
X160650380Y-61721809D01*
X160650380Y-62007523D01*
X160602761Y-62102761D01*
X160555142Y-62150380D01*
X160555142Y-61102761D02*
X160602761Y-61055142D01*
X160650380Y-61102761D01*
X160602761Y-61150380D01*
X160555142Y-61102761D01*
X160650380Y-61102761D01*
X159650380Y-60721809D02*
X159650380Y-60102761D01*
X160031333Y-60436095D01*
X160031333Y-60293238D01*
X160078952Y-60198000D01*
X160126571Y-60150380D01*
X160221809Y-60102761D01*
X160459904Y-60102761D01*
X160555142Y-60150380D01*
X160602761Y-60198000D01*
X160650380Y-60293238D01*
X160650380Y-60578952D01*
X160602761Y-60674190D01*
X160555142Y-60721809D01*
X159650380Y-59817047D02*
X160650380Y-59483714D01*
X159650380Y-59150380D01*
X160650380Y-58293238D02*
X160650380Y-58864666D01*
X160650380Y-58578952D02*
X159650380Y-58578952D01*
X159793238Y-58674190D01*
X159888476Y-58769428D01*
X159936095Y-58864666D01*
%TO.C,R12*%
X152773142Y-90224380D02*
X152439809Y-89748190D01*
X152201714Y-90224380D02*
X152201714Y-89224380D01*
X152582666Y-89224380D01*
X152677904Y-89272000D01*
X152725523Y-89319619D01*
X152773142Y-89414857D01*
X152773142Y-89557714D01*
X152725523Y-89652952D01*
X152677904Y-89700571D01*
X152582666Y-89748190D01*
X152201714Y-89748190D01*
X153725523Y-90224380D02*
X153154095Y-90224380D01*
X153439809Y-90224380D02*
X153439809Y-89224380D01*
X153344571Y-89367238D01*
X153249333Y-89462476D01*
X153154095Y-89510095D01*
X154106476Y-89319619D02*
X154154095Y-89272000D01*
X154249333Y-89224380D01*
X154487428Y-89224380D01*
X154582666Y-89272000D01*
X154630285Y-89319619D01*
X154677904Y-89414857D01*
X154677904Y-89510095D01*
X154630285Y-89652952D01*
X154058857Y-90224380D01*
X154677904Y-90224380D01*
%TO.C,RX1*%
X158107142Y-71648380D02*
X157773809Y-71172190D01*
X157535714Y-71648380D02*
X157535714Y-70648380D01*
X157916666Y-70648380D01*
X158011904Y-70696000D01*
X158059523Y-70743619D01*
X158107142Y-70838857D01*
X158107142Y-70981714D01*
X158059523Y-71076952D01*
X158011904Y-71124571D01*
X157916666Y-71172190D01*
X157535714Y-71172190D01*
X158440476Y-70648380D02*
X159107142Y-71648380D01*
X159107142Y-70648380D02*
X158440476Y-71648380D01*
X160011904Y-71648380D02*
X159440476Y-71648380D01*
X159726190Y-71648380D02*
X159726190Y-70648380D01*
X159630952Y-70791238D01*
X159535714Y-70886476D01*
X159440476Y-70934095D01*
%TO.C,R1*%
X150706380Y-58844666D02*
X150230190Y-59178000D01*
X150706380Y-59416095D02*
X149706380Y-59416095D01*
X149706380Y-59035142D01*
X149754000Y-58939904D01*
X149801619Y-58892285D01*
X149896857Y-58844666D01*
X150039714Y-58844666D01*
X150134952Y-58892285D01*
X150182571Y-58939904D01*
X150230190Y-59035142D01*
X150230190Y-59416095D01*
X150706380Y-57892285D02*
X150706380Y-58463714D01*
X150706380Y-58178000D02*
X149706380Y-58178000D01*
X149849238Y-58273238D01*
X149944476Y-58368476D01*
X149992095Y-58463714D01*
%TO.C,C8*%
X150107142Y-72274666D02*
X150154761Y-72322285D01*
X150202380Y-72465142D01*
X150202380Y-72560380D01*
X150154761Y-72703238D01*
X150059523Y-72798476D01*
X149964285Y-72846095D01*
X149773809Y-72893714D01*
X149630952Y-72893714D01*
X149440476Y-72846095D01*
X149345238Y-72798476D01*
X149250000Y-72703238D01*
X149202380Y-72560380D01*
X149202380Y-72465142D01*
X149250000Y-72322285D01*
X149297619Y-72274666D01*
X149630952Y-71703238D02*
X149583333Y-71798476D01*
X149535714Y-71846095D01*
X149440476Y-71893714D01*
X149392857Y-71893714D01*
X149297619Y-71846095D01*
X149250000Y-71798476D01*
X149202380Y-71703238D01*
X149202380Y-71512761D01*
X149250000Y-71417523D01*
X149297619Y-71369904D01*
X149392857Y-71322285D01*
X149440476Y-71322285D01*
X149535714Y-71369904D01*
X149583333Y-71417523D01*
X149630952Y-71512761D01*
X149630952Y-71703238D01*
X149678571Y-71798476D01*
X149726190Y-71846095D01*
X149821428Y-71893714D01*
X150011904Y-71893714D01*
X150107142Y-71846095D01*
X150154761Y-71798476D01*
X150202380Y-71703238D01*
X150202380Y-71512761D01*
X150154761Y-71417523D01*
X150107142Y-71369904D01*
X150011904Y-71322285D01*
X149821428Y-71322285D01*
X149726190Y-71369904D01*
X149678571Y-71417523D01*
X149630952Y-71512761D01*
%TO.C,Y1*%
X154887809Y-67122190D02*
X154887809Y-67598380D01*
X154554476Y-66598380D02*
X154887809Y-67122190D01*
X155221142Y-66598380D01*
X156078285Y-67598380D02*
X155506857Y-67598380D01*
X155792571Y-67598380D02*
X155792571Y-66598380D01*
X155697333Y-66741238D01*
X155602095Y-66836476D01*
X155506857Y-66884095D01*
%TO.C,C18*%
X155187142Y-108846857D02*
X155234761Y-108894476D01*
X155282380Y-109037333D01*
X155282380Y-109132571D01*
X155234761Y-109275428D01*
X155139523Y-109370666D01*
X155044285Y-109418285D01*
X154853809Y-109465904D01*
X154710952Y-109465904D01*
X154520476Y-109418285D01*
X154425238Y-109370666D01*
X154330000Y-109275428D01*
X154282380Y-109132571D01*
X154282380Y-109037333D01*
X154330000Y-108894476D01*
X154377619Y-108846857D01*
X155282380Y-107894476D02*
X155282380Y-108465904D01*
X155282380Y-108180190D02*
X154282380Y-108180190D01*
X154425238Y-108275428D01*
X154520476Y-108370666D01*
X154568095Y-108465904D01*
X154710952Y-107323047D02*
X154663333Y-107418285D01*
X154615714Y-107465904D01*
X154520476Y-107513523D01*
X154472857Y-107513523D01*
X154377619Y-107465904D01*
X154330000Y-107418285D01*
X154282380Y-107323047D01*
X154282380Y-107132571D01*
X154330000Y-107037333D01*
X154377619Y-106989714D01*
X154472857Y-106942095D01*
X154520476Y-106942095D01*
X154615714Y-106989714D01*
X154663333Y-107037333D01*
X154710952Y-107132571D01*
X154710952Y-107323047D01*
X154758571Y-107418285D01*
X154806190Y-107465904D01*
X154901428Y-107513523D01*
X155091904Y-107513523D01*
X155187142Y-107465904D01*
X155234761Y-107418285D01*
X155282380Y-107323047D01*
X155282380Y-107132571D01*
X155234761Y-107037333D01*
X155187142Y-106989714D01*
X155091904Y-106942095D01*
X154901428Y-106942095D01*
X154806190Y-106989714D01*
X154758571Y-107037333D01*
X154710952Y-107132571D01*
%TO.C,C5*%
X149091142Y-72274666D02*
X149138761Y-72322285D01*
X149186380Y-72465142D01*
X149186380Y-72560380D01*
X149138761Y-72703238D01*
X149043523Y-72798476D01*
X148948285Y-72846095D01*
X148757809Y-72893714D01*
X148614952Y-72893714D01*
X148424476Y-72846095D01*
X148329238Y-72798476D01*
X148234000Y-72703238D01*
X148186380Y-72560380D01*
X148186380Y-72465142D01*
X148234000Y-72322285D01*
X148281619Y-72274666D01*
X148186380Y-71369904D02*
X148186380Y-71846095D01*
X148662571Y-71893714D01*
X148614952Y-71846095D01*
X148567333Y-71750857D01*
X148567333Y-71512761D01*
X148614952Y-71417523D01*
X148662571Y-71369904D01*
X148757809Y-71322285D01*
X148995904Y-71322285D01*
X149091142Y-71369904D01*
X149138761Y-71417523D01*
X149186380Y-71512761D01*
X149186380Y-71750857D01*
X149138761Y-71846095D01*
X149091142Y-71893714D01*
%TO.C,R11*%
X153789142Y-64560380D02*
X153455809Y-64084190D01*
X153217714Y-64560380D02*
X153217714Y-63560380D01*
X153598666Y-63560380D01*
X153693904Y-63608000D01*
X153741523Y-63655619D01*
X153789142Y-63750857D01*
X153789142Y-63893714D01*
X153741523Y-63988952D01*
X153693904Y-64036571D01*
X153598666Y-64084190D01*
X153217714Y-64084190D01*
X154741523Y-64560380D02*
X154170095Y-64560380D01*
X154455809Y-64560380D02*
X154455809Y-63560380D01*
X154360571Y-63703238D01*
X154265333Y-63798476D01*
X154170095Y-63846095D01*
X155693904Y-64560380D02*
X155122476Y-64560380D01*
X155408190Y-64560380D02*
X155408190Y-63560380D01*
X155312952Y-63703238D01*
X155217714Y-63798476D01*
X155122476Y-63846095D01*
%TO.C,D1*%
X161178380Y-48490095D02*
X160178380Y-48490095D01*
X160178380Y-48252000D01*
X160226000Y-48109142D01*
X160321238Y-48013904D01*
X160416476Y-47966285D01*
X160606952Y-47918666D01*
X160749809Y-47918666D01*
X160940285Y-47966285D01*
X161035523Y-48013904D01*
X161130761Y-48109142D01*
X161178380Y-48252000D01*
X161178380Y-48490095D01*
X161178380Y-46966285D02*
X161178380Y-47537714D01*
X161178380Y-47252000D02*
X160178380Y-47252000D01*
X160321238Y-47347238D01*
X160416476Y-47442476D01*
X160464095Y-47537714D01*
X159278380Y-43316285D02*
X159278380Y-43887714D01*
X159278380Y-43602000D02*
X158278380Y-43602000D01*
X158421238Y-43697238D01*
X158516476Y-43792476D01*
X158564095Y-43887714D01*
%TO.C,C13*%
X150201142Y-74810857D02*
X150248761Y-74858476D01*
X150296380Y-75001333D01*
X150296380Y-75096571D01*
X150248761Y-75239428D01*
X150153523Y-75334666D01*
X150058285Y-75382285D01*
X149867809Y-75429904D01*
X149724952Y-75429904D01*
X149534476Y-75382285D01*
X149439238Y-75334666D01*
X149344000Y-75239428D01*
X149296380Y-75096571D01*
X149296380Y-75001333D01*
X149344000Y-74858476D01*
X149391619Y-74810857D01*
X150296380Y-73858476D02*
X150296380Y-74429904D01*
X150296380Y-74144190D02*
X149296380Y-74144190D01*
X149439238Y-74239428D01*
X149534476Y-74334666D01*
X149582095Y-74429904D01*
X149296380Y-73525142D02*
X149296380Y-72906095D01*
X149677333Y-73239428D01*
X149677333Y-73096571D01*
X149724952Y-73001333D01*
X149772571Y-72953714D01*
X149867809Y-72906095D01*
X150105904Y-72906095D01*
X150201142Y-72953714D01*
X150248761Y-73001333D01*
X150296380Y-73096571D01*
X150296380Y-73382285D01*
X150248761Y-73477523D01*
X150201142Y-73525142D01*
%TO.C,R5*%
X155746380Y-80684666D02*
X155270190Y-81018000D01*
X155746380Y-81256095D02*
X154746380Y-81256095D01*
X154746380Y-80875142D01*
X154794000Y-80779904D01*
X154841619Y-80732285D01*
X154936857Y-80684666D01*
X155079714Y-80684666D01*
X155174952Y-80732285D01*
X155222571Y-80779904D01*
X155270190Y-80875142D01*
X155270190Y-81256095D01*
X154746380Y-79779904D02*
X154746380Y-80256095D01*
X155222571Y-80303714D01*
X155174952Y-80256095D01*
X155127333Y-80160857D01*
X155127333Y-79922761D01*
X155174952Y-79827523D01*
X155222571Y-79779904D01*
X155317809Y-79732285D01*
X155555904Y-79732285D01*
X155651142Y-79779904D01*
X155698761Y-79827523D01*
X155746380Y-79922761D01*
X155746380Y-80160857D01*
X155698761Y-80256095D01*
X155651142Y-80303714D01*
%TO.C,C14*%
X157169142Y-63380857D02*
X157216761Y-63428476D01*
X157264380Y-63571333D01*
X157264380Y-63666571D01*
X157216761Y-63809428D01*
X157121523Y-63904666D01*
X157026285Y-63952285D01*
X156835809Y-63999904D01*
X156692952Y-63999904D01*
X156502476Y-63952285D01*
X156407238Y-63904666D01*
X156312000Y-63809428D01*
X156264380Y-63666571D01*
X156264380Y-63571333D01*
X156312000Y-63428476D01*
X156359619Y-63380857D01*
X157264380Y-62428476D02*
X157264380Y-62999904D01*
X157264380Y-62714190D02*
X156264380Y-62714190D01*
X156407238Y-62809428D01*
X156502476Y-62904666D01*
X156550095Y-62999904D01*
X156597714Y-61571333D02*
X157264380Y-61571333D01*
X156216761Y-61809428D02*
X156931047Y-62047523D01*
X156931047Y-61428476D01*
%TO.C,D2*%
X144526380Y-48490095D02*
X143526380Y-48490095D01*
X143526380Y-48252000D01*
X143574000Y-48109142D01*
X143669238Y-48013904D01*
X143764476Y-47966285D01*
X143954952Y-47918666D01*
X144097809Y-47918666D01*
X144288285Y-47966285D01*
X144383523Y-48013904D01*
X144478761Y-48109142D01*
X144526380Y-48252000D01*
X144526380Y-48490095D01*
X143621619Y-47537714D02*
X143574000Y-47490095D01*
X143526380Y-47394857D01*
X143526380Y-47156761D01*
X143574000Y-47061523D01*
X143621619Y-47013904D01*
X143716857Y-46966285D01*
X143812095Y-46966285D01*
X143954952Y-47013904D01*
X144526380Y-47585333D01*
X144526380Y-46966285D01*
X146426380Y-51616285D02*
X146426380Y-52187714D01*
X146426380Y-51902000D02*
X145426380Y-51902000D01*
X145569238Y-51997238D01*
X145664476Y-52092476D01*
X145712095Y-52187714D01*
%TO.C,C9*%
X159261142Y-69000666D02*
X159308761Y-69048285D01*
X159356380Y-69191142D01*
X159356380Y-69286380D01*
X159308761Y-69429238D01*
X159213523Y-69524476D01*
X159118285Y-69572095D01*
X158927809Y-69619714D01*
X158784952Y-69619714D01*
X158594476Y-69572095D01*
X158499238Y-69524476D01*
X158404000Y-69429238D01*
X158356380Y-69286380D01*
X158356380Y-69191142D01*
X158404000Y-69048285D01*
X158451619Y-69000666D01*
X159356380Y-68524476D02*
X159356380Y-68334000D01*
X159308761Y-68238761D01*
X159261142Y-68191142D01*
X159118285Y-68095904D01*
X158927809Y-68048285D01*
X158546857Y-68048285D01*
X158451619Y-68095904D01*
X158404000Y-68143523D01*
X158356380Y-68238761D01*
X158356380Y-68429238D01*
X158404000Y-68524476D01*
X158451619Y-68572095D01*
X158546857Y-68619714D01*
X158784952Y-68619714D01*
X158880190Y-68572095D01*
X158927809Y-68524476D01*
X158975428Y-68429238D01*
X158975428Y-68238761D01*
X158927809Y-68143523D01*
X158880190Y-68095904D01*
X158784952Y-68048285D01*
%TO.C,R3*%
X154730380Y-80684666D02*
X154254190Y-81018000D01*
X154730380Y-81256095D02*
X153730380Y-81256095D01*
X153730380Y-80875142D01*
X153778000Y-80779904D01*
X153825619Y-80732285D01*
X153920857Y-80684666D01*
X154063714Y-80684666D01*
X154158952Y-80732285D01*
X154206571Y-80779904D01*
X154254190Y-80875142D01*
X154254190Y-81256095D01*
X153730380Y-80351333D02*
X153730380Y-79732285D01*
X154111333Y-80065619D01*
X154111333Y-79922761D01*
X154158952Y-79827523D01*
X154206571Y-79779904D01*
X154301809Y-79732285D01*
X154539904Y-79732285D01*
X154635142Y-79779904D01*
X154682761Y-79827523D01*
X154730380Y-79922761D01*
X154730380Y-80208476D01*
X154682761Y-80303714D01*
X154635142Y-80351333D01*
%TO.C,R7*%
X152741333Y-60296380D02*
X152408000Y-59820190D01*
X152169904Y-60296380D02*
X152169904Y-59296380D01*
X152550857Y-59296380D01*
X152646095Y-59344000D01*
X152693714Y-59391619D01*
X152741333Y-59486857D01*
X152741333Y-59629714D01*
X152693714Y-59724952D01*
X152646095Y-59772571D01*
X152550857Y-59820190D01*
X152169904Y-59820190D01*
X153074666Y-59296380D02*
X153741333Y-59296380D01*
X153312761Y-60296380D01*
%TO.C,Q1*%
X152045619Y-60547238D02*
X151998000Y-60642476D01*
X151902761Y-60737714D01*
X151759904Y-60880571D01*
X151712285Y-60975809D01*
X151712285Y-61071047D01*
X151950380Y-61023428D02*
X151902761Y-61118666D01*
X151807523Y-61213904D01*
X151617047Y-61261523D01*
X151283714Y-61261523D01*
X151093238Y-61213904D01*
X150998000Y-61118666D01*
X150950380Y-61023428D01*
X150950380Y-60832952D01*
X150998000Y-60737714D01*
X151093238Y-60642476D01*
X151283714Y-60594857D01*
X151617047Y-60594857D01*
X151807523Y-60642476D01*
X151902761Y-60737714D01*
X151950380Y-60832952D01*
X151950380Y-61023428D01*
X151950380Y-59642476D02*
X151950380Y-60213904D01*
X151950380Y-59928190D02*
X150950380Y-59928190D01*
X151093238Y-60023428D01*
X151188476Y-60118666D01*
X151236095Y-60213904D01*
%TO.C,TX1*%
X157511904Y-68616380D02*
X158083333Y-68616380D01*
X157797619Y-69616380D02*
X157797619Y-68616380D01*
X158321428Y-68616380D02*
X158988095Y-69616380D01*
X158988095Y-68616380D02*
X158321428Y-69616380D01*
X159892857Y-69616380D02*
X159321428Y-69616380D01*
X159607142Y-69616380D02*
X159607142Y-68616380D01*
X159511904Y-68759238D01*
X159416666Y-68854476D01*
X159321428Y-68902095D01*
%TO.C,C12*%
X148091142Y-72270857D02*
X148138761Y-72318476D01*
X148186380Y-72461333D01*
X148186380Y-72556571D01*
X148138761Y-72699428D01*
X148043523Y-72794666D01*
X147948285Y-72842285D01*
X147757809Y-72889904D01*
X147614952Y-72889904D01*
X147424476Y-72842285D01*
X147329238Y-72794666D01*
X147234000Y-72699428D01*
X147186380Y-72556571D01*
X147186380Y-72461333D01*
X147234000Y-72318476D01*
X147281619Y-72270857D01*
X148186380Y-71318476D02*
X148186380Y-71889904D01*
X148186380Y-71604190D02*
X147186380Y-71604190D01*
X147329238Y-71699428D01*
X147424476Y-71794666D01*
X147472095Y-71889904D01*
X147281619Y-70937523D02*
X147234000Y-70889904D01*
X147186380Y-70794666D01*
X147186380Y-70556571D01*
X147234000Y-70461333D01*
X147281619Y-70413714D01*
X147376857Y-70366095D01*
X147472095Y-70366095D01*
X147614952Y-70413714D01*
X148186380Y-70985142D01*
X148186380Y-70366095D01*
%TO.C,J1*%
X157146666Y-82989380D02*
X157146666Y-83703666D01*
X157099047Y-83846523D01*
X157003809Y-83941761D01*
X156860952Y-83989380D01*
X156765714Y-83989380D01*
X158146666Y-83989380D02*
X157575238Y-83989380D01*
X157860952Y-83989380D02*
X157860952Y-82989380D01*
X157765714Y-83132238D01*
X157670476Y-83227476D01*
X157575238Y-83275095D01*
%TO.C,C3*%
X150565142Y-62904666D02*
X150612761Y-62952285D01*
X150660380Y-63095142D01*
X150660380Y-63190380D01*
X150612761Y-63333238D01*
X150517523Y-63428476D01*
X150422285Y-63476095D01*
X150231809Y-63523714D01*
X150088952Y-63523714D01*
X149898476Y-63476095D01*
X149803238Y-63428476D01*
X149708000Y-63333238D01*
X149660380Y-63190380D01*
X149660380Y-63095142D01*
X149708000Y-62952285D01*
X149755619Y-62904666D01*
X149660380Y-62571333D02*
X149660380Y-61952285D01*
X150041333Y-62285619D01*
X150041333Y-62142761D01*
X150088952Y-62047523D01*
X150136571Y-61999904D01*
X150231809Y-61952285D01*
X150469904Y-61952285D01*
X150565142Y-61999904D01*
X150612761Y-62047523D01*
X150660380Y-62142761D01*
X150660380Y-62428476D01*
X150612761Y-62523714D01*
X150565142Y-62571333D01*
%TO.C,C11*%
X150299142Y-49918857D02*
X150346761Y-49966476D01*
X150394380Y-50109333D01*
X150394380Y-50204571D01*
X150346761Y-50347428D01*
X150251523Y-50442666D01*
X150156285Y-50490285D01*
X149965809Y-50537904D01*
X149822952Y-50537904D01*
X149632476Y-50490285D01*
X149537238Y-50442666D01*
X149442000Y-50347428D01*
X149394380Y-50204571D01*
X149394380Y-50109333D01*
X149442000Y-49966476D01*
X149489619Y-49918857D01*
X150394380Y-48966476D02*
X150394380Y-49537904D01*
X150394380Y-49252190D02*
X149394380Y-49252190D01*
X149537238Y-49347428D01*
X149632476Y-49442666D01*
X149680095Y-49537904D01*
X150394380Y-48014095D02*
X150394380Y-48585523D01*
X150394380Y-48299809D02*
X149394380Y-48299809D01*
X149537238Y-48395047D01*
X149632476Y-48490285D01*
X149680095Y-48585523D01*
%TO.C,C2*%
X155965142Y-81192666D02*
X156012761Y-81240285D01*
X156060380Y-81383142D01*
X156060380Y-81478380D01*
X156012761Y-81621238D01*
X155917523Y-81716476D01*
X155822285Y-81764095D01*
X155631809Y-81811714D01*
X155488952Y-81811714D01*
X155298476Y-81764095D01*
X155203238Y-81716476D01*
X155108000Y-81621238D01*
X155060380Y-81478380D01*
X155060380Y-81383142D01*
X155108000Y-81240285D01*
X155155619Y-81192666D01*
X155155619Y-80811714D02*
X155108000Y-80764095D01*
X155060380Y-80668857D01*
X155060380Y-80430761D01*
X155108000Y-80335523D01*
X155155619Y-80287904D01*
X155250857Y-80240285D01*
X155346095Y-80240285D01*
X155488952Y-80287904D01*
X156060380Y-80859333D01*
X156060380Y-80240285D01*
%TO.C,FB1*%
X152836666Y-61810571D02*
X152503333Y-61810571D01*
X152503333Y-62334380D02*
X152503333Y-61334380D01*
X152979523Y-61334380D01*
X153693809Y-61810571D02*
X153836666Y-61858190D01*
X153884285Y-61905809D01*
X153931904Y-62001047D01*
X153931904Y-62143904D01*
X153884285Y-62239142D01*
X153836666Y-62286761D01*
X153741428Y-62334380D01*
X153360476Y-62334380D01*
X153360476Y-61334380D01*
X153693809Y-61334380D01*
X153789047Y-61382000D01*
X153836666Y-61429619D01*
X153884285Y-61524857D01*
X153884285Y-61620095D01*
X153836666Y-61715333D01*
X153789047Y-61762952D01*
X153693809Y-61810571D01*
X153360476Y-61810571D01*
X154884285Y-62334380D02*
X154312857Y-62334380D01*
X154598571Y-62334380D02*
X154598571Y-61334380D01*
X154503333Y-61477238D01*
X154408095Y-61572476D01*
X154312857Y-61620095D01*
%TO.C,GPIO1*%
X157273809Y-76792000D02*
X157178571Y-76744380D01*
X157035714Y-76744380D01*
X156892857Y-76792000D01*
X156797619Y-76887238D01*
X156750000Y-76982476D01*
X156702380Y-77172952D01*
X156702380Y-77315809D01*
X156750000Y-77506285D01*
X156797619Y-77601523D01*
X156892857Y-77696761D01*
X157035714Y-77744380D01*
X157130952Y-77744380D01*
X157273809Y-77696761D01*
X157321428Y-77649142D01*
X157321428Y-77315809D01*
X157130952Y-77315809D01*
X157750000Y-77744380D02*
X157750000Y-76744380D01*
X158130952Y-76744380D01*
X158226190Y-76792000D01*
X158273809Y-76839619D01*
X158321428Y-76934857D01*
X158321428Y-77077714D01*
X158273809Y-77172952D01*
X158226190Y-77220571D01*
X158130952Y-77268190D01*
X157750000Y-77268190D01*
X158750000Y-77744380D02*
X158750000Y-76744380D01*
X159416666Y-76744380D02*
X159607142Y-76744380D01*
X159702380Y-76792000D01*
X159797619Y-76887238D01*
X159845238Y-77077714D01*
X159845238Y-77411047D01*
X159797619Y-77601523D01*
X159702380Y-77696761D01*
X159607142Y-77744380D01*
X159416666Y-77744380D01*
X159321428Y-77696761D01*
X159226190Y-77601523D01*
X159178571Y-77411047D01*
X159178571Y-77077714D01*
X159226190Y-76887238D01*
X159321428Y-76792000D01*
X159416666Y-76744380D01*
X160797619Y-77744380D02*
X160226190Y-77744380D01*
X160511904Y-77744380D02*
X160511904Y-76744380D01*
X160416666Y-76887238D01*
X160321428Y-76982476D01*
X160226190Y-77030095D01*
%TO.C,R6*%
X150666380Y-56808666D02*
X150190190Y-57142000D01*
X150666380Y-57380095D02*
X149666380Y-57380095D01*
X149666380Y-56999142D01*
X149714000Y-56903904D01*
X149761619Y-56856285D01*
X149856857Y-56808666D01*
X149999714Y-56808666D01*
X150094952Y-56856285D01*
X150142571Y-56903904D01*
X150190190Y-56999142D01*
X150190190Y-57380095D01*
X149666380Y-55951523D02*
X149666380Y-56142000D01*
X149714000Y-56237238D01*
X149761619Y-56284857D01*
X149904476Y-56380095D01*
X150094952Y-56427714D01*
X150475904Y-56427714D01*
X150571142Y-56380095D01*
X150618761Y-56332476D01*
X150666380Y-56237238D01*
X150666380Y-56046761D01*
X150618761Y-55951523D01*
X150571142Y-55903904D01*
X150475904Y-55856285D01*
X150237809Y-55856285D01*
X150142571Y-55903904D01*
X150094952Y-55951523D01*
X150047333Y-56046761D01*
X150047333Y-56237238D01*
X150094952Y-56332476D01*
X150142571Y-56380095D01*
X150237809Y-56427714D01*
%TO.C,R12*%
X158107142Y-73714380D02*
X157773809Y-73238190D01*
X157535714Y-73714380D02*
X157535714Y-72714380D01*
X157916666Y-72714380D01*
X158011904Y-72762000D01*
X158059523Y-72809619D01*
X158107142Y-72904857D01*
X158107142Y-73047714D01*
X158059523Y-73142952D01*
X158011904Y-73190571D01*
X157916666Y-73238190D01*
X157535714Y-73238190D01*
X159059523Y-73714380D02*
X158488095Y-73714380D01*
X158773809Y-73714380D02*
X158773809Y-72714380D01*
X158678571Y-72857238D01*
X158583333Y-72952476D01*
X158488095Y-73000095D01*
X159440476Y-72809619D02*
X159488095Y-72762000D01*
X159583333Y-72714380D01*
X159821428Y-72714380D01*
X159916666Y-72762000D01*
X159964285Y-72809619D01*
X160011904Y-72904857D01*
X160011904Y-73000095D01*
X159964285Y-73142952D01*
X159392857Y-73714380D01*
X160011904Y-73714380D01*
%TO.C,R8*%
X146094380Y-56808666D02*
X145618190Y-57142000D01*
X146094380Y-57380095D02*
X145094380Y-57380095D01*
X145094380Y-56999142D01*
X145142000Y-56903904D01*
X145189619Y-56856285D01*
X145284857Y-56808666D01*
X145427714Y-56808666D01*
X145522952Y-56856285D01*
X145570571Y-56903904D01*
X145618190Y-56999142D01*
X145618190Y-57380095D01*
X145522952Y-56237238D02*
X145475333Y-56332476D01*
X145427714Y-56380095D01*
X145332476Y-56427714D01*
X145284857Y-56427714D01*
X145189619Y-56380095D01*
X145142000Y-56332476D01*
X145094380Y-56237238D01*
X145094380Y-56046761D01*
X145142000Y-55951523D01*
X145189619Y-55903904D01*
X145284857Y-55856285D01*
X145332476Y-55856285D01*
X145427714Y-55903904D01*
X145475333Y-55951523D01*
X145522952Y-56046761D01*
X145522952Y-56237238D01*
X145570571Y-56332476D01*
X145618190Y-56380095D01*
X145713428Y-56427714D01*
X145903904Y-56427714D01*
X145999142Y-56380095D01*
X146046761Y-56332476D01*
X146094380Y-56237238D01*
X146094380Y-56046761D01*
X146046761Y-55951523D01*
X145999142Y-55903904D01*
X145903904Y-55856285D01*
X145713428Y-55856285D01*
X145618190Y-55903904D01*
X145570571Y-55951523D01*
X145522952Y-56046761D01*
%TO.C,BT1*%
X151614285Y-57848571D02*
X151757142Y-57896190D01*
X151804761Y-57943809D01*
X151852380Y-58039047D01*
X151852380Y-58181904D01*
X151804761Y-58277142D01*
X151757142Y-58324761D01*
X151661904Y-58372380D01*
X151280952Y-58372380D01*
X151280952Y-57372380D01*
X151614285Y-57372380D01*
X151709523Y-57420000D01*
X151757142Y-57467619D01*
X151804761Y-57562857D01*
X151804761Y-57658095D01*
X151757142Y-57753333D01*
X151709523Y-57800952D01*
X151614285Y-57848571D01*
X151280952Y-57848571D01*
X152138095Y-57372380D02*
X152709523Y-57372380D01*
X152423809Y-58372380D02*
X152423809Y-57372380D01*
X153566666Y-58372380D02*
X152995238Y-58372380D01*
X153280952Y-58372380D02*
X153280952Y-57372380D01*
X153185714Y-57515238D01*
X153090476Y-57610476D01*
X152995238Y-57658095D01*
%TO.C,C6*%
X150327142Y-108342666D02*
X150374761Y-108390285D01*
X150422380Y-108533142D01*
X150422380Y-108628380D01*
X150374761Y-108771238D01*
X150279523Y-108866476D01*
X150184285Y-108914095D01*
X149993809Y-108961714D01*
X149850952Y-108961714D01*
X149660476Y-108914095D01*
X149565238Y-108866476D01*
X149470000Y-108771238D01*
X149422380Y-108628380D01*
X149422380Y-108533142D01*
X149470000Y-108390285D01*
X149517619Y-108342666D01*
X149422380Y-107485523D02*
X149422380Y-107676000D01*
X149470000Y-107771238D01*
X149517619Y-107818857D01*
X149660476Y-107914095D01*
X149850952Y-107961714D01*
X150231904Y-107961714D01*
X150327142Y-107914095D01*
X150374761Y-107866476D01*
X150422380Y-107771238D01*
X150422380Y-107580761D01*
X150374761Y-107485523D01*
X150327142Y-107437904D01*
X150231904Y-107390285D01*
X149993809Y-107390285D01*
X149898571Y-107437904D01*
X149850952Y-107485523D01*
X149803333Y-107580761D01*
X149803333Y-107771238D01*
X149850952Y-107866476D01*
X149898571Y-107914095D01*
X149993809Y-107961714D01*
%TO.C,C10*%
X152181142Y-71000857D02*
X152228761Y-71048476D01*
X152276380Y-71191333D01*
X152276380Y-71286571D01*
X152228761Y-71429428D01*
X152133523Y-71524666D01*
X152038285Y-71572285D01*
X151847809Y-71619904D01*
X151704952Y-71619904D01*
X151514476Y-71572285D01*
X151419238Y-71524666D01*
X151324000Y-71429428D01*
X151276380Y-71286571D01*
X151276380Y-71191333D01*
X151324000Y-71048476D01*
X151371619Y-71000857D01*
X152276380Y-70048476D02*
X152276380Y-70619904D01*
X152276380Y-70334190D02*
X151276380Y-70334190D01*
X151419238Y-70429428D01*
X151514476Y-70524666D01*
X151562095Y-70619904D01*
X151276380Y-69429428D02*
X151276380Y-69334190D01*
X151324000Y-69238952D01*
X151371619Y-69191333D01*
X151466857Y-69143714D01*
X151657333Y-69096095D01*
X151895428Y-69096095D01*
X152085904Y-69143714D01*
X152181142Y-69191333D01*
X152228761Y-69238952D01*
X152276380Y-69334190D01*
X152276380Y-69429428D01*
X152228761Y-69524666D01*
X152181142Y-69572285D01*
X152085904Y-69619904D01*
X151895428Y-69667523D01*
X151657333Y-69667523D01*
X151466857Y-69619904D01*
X151371619Y-69572285D01*
X151324000Y-69524666D01*
X151276380Y-69429428D01*
%TO.C,D4*%
X161178380Y-110466095D02*
X160178380Y-110466095D01*
X160178380Y-110228000D01*
X160226000Y-110085142D01*
X160321238Y-109989904D01*
X160416476Y-109942285D01*
X160606952Y-109894666D01*
X160749809Y-109894666D01*
X160940285Y-109942285D01*
X161035523Y-109989904D01*
X161130761Y-110085142D01*
X161178380Y-110228000D01*
X161178380Y-110466095D01*
X160511714Y-109037523D02*
X161178380Y-109037523D01*
X160130761Y-109275619D02*
X160845047Y-109513714D01*
X160845047Y-108894666D01*
X159278380Y-105292285D02*
X159278380Y-105863714D01*
X159278380Y-105578000D02*
X158278380Y-105578000D01*
X158421238Y-105673238D01*
X158516476Y-105768476D01*
X158564095Y-105863714D01*
%TO.C,D3*%
X144526380Y-110466095D02*
X143526380Y-110466095D01*
X143526380Y-110228000D01*
X143574000Y-110085142D01*
X143669238Y-109989904D01*
X143764476Y-109942285D01*
X143954952Y-109894666D01*
X144097809Y-109894666D01*
X144288285Y-109942285D01*
X144383523Y-109989904D01*
X144478761Y-110085142D01*
X144526380Y-110228000D01*
X144526380Y-110466095D01*
X143526380Y-109561333D02*
X143526380Y-108942285D01*
X143907333Y-109275619D01*
X143907333Y-109132761D01*
X143954952Y-109037523D01*
X144002571Y-108989904D01*
X144097809Y-108942285D01*
X144335904Y-108942285D01*
X144431142Y-108989904D01*
X144478761Y-109037523D01*
X144526380Y-109132761D01*
X144526380Y-109418476D01*
X144478761Y-109513714D01*
X144431142Y-109561333D01*
X146426380Y-113592285D02*
X146426380Y-114163714D01*
X146426380Y-113878000D02*
X145426380Y-113878000D01*
X145569238Y-113973238D01*
X145664476Y-114068476D01*
X145712095Y-114163714D01*
%TO.C,L1*%
X149693333Y-75366380D02*
X149217142Y-75366380D01*
X149217142Y-74366380D01*
X150550476Y-75366380D02*
X149979047Y-75366380D01*
X150264761Y-75366380D02*
X150264761Y-74366380D01*
X150169523Y-74509238D01*
X150074285Y-74604476D01*
X149979047Y-74652095D01*
%TO.C,C7*%
X152233142Y-74334666D02*
X152280761Y-74382285D01*
X152328380Y-74525142D01*
X152328380Y-74620380D01*
X152280761Y-74763238D01*
X152185523Y-74858476D01*
X152090285Y-74906095D01*
X151899809Y-74953714D01*
X151756952Y-74953714D01*
X151566476Y-74906095D01*
X151471238Y-74858476D01*
X151376000Y-74763238D01*
X151328380Y-74620380D01*
X151328380Y-74525142D01*
X151376000Y-74382285D01*
X151423619Y-74334666D01*
X151328380Y-74001333D02*
X151328380Y-73334666D01*
X152328380Y-73763238D01*
%TO.C,R9*%
X149947333Y-69894380D02*
X149614000Y-69418190D01*
X149375904Y-69894380D02*
X149375904Y-68894380D01*
X149756857Y-68894380D01*
X149852095Y-68942000D01*
X149899714Y-68989619D01*
X149947333Y-69084857D01*
X149947333Y-69227714D01*
X149899714Y-69322952D01*
X149852095Y-69370571D01*
X149756857Y-69418190D01*
X149375904Y-69418190D01*
X150423523Y-69894380D02*
X150614000Y-69894380D01*
X150709238Y-69846761D01*
X150756857Y-69799142D01*
X150852095Y-69656285D01*
X150899714Y-69465809D01*
X150899714Y-69084857D01*
X150852095Y-68989619D01*
X150804476Y-68942000D01*
X150709238Y-68894380D01*
X150518761Y-68894380D01*
X150423523Y-68942000D01*
X150375904Y-68989619D01*
X150328285Y-69084857D01*
X150328285Y-69322952D01*
X150375904Y-69418190D01*
X150423523Y-69465809D01*
X150518761Y-69513428D01*
X150709238Y-69513428D01*
X150804476Y-69465809D01*
X150852095Y-69418190D01*
X150899714Y-69322952D01*
%TO.C,R4*%
X156762380Y-80684666D02*
X156286190Y-81018000D01*
X156762380Y-81256095D02*
X155762380Y-81256095D01*
X155762380Y-80875142D01*
X155810000Y-80779904D01*
X155857619Y-80732285D01*
X155952857Y-80684666D01*
X156095714Y-80684666D01*
X156190952Y-80732285D01*
X156238571Y-80779904D01*
X156286190Y-80875142D01*
X156286190Y-81256095D01*
X156095714Y-79827523D02*
X156762380Y-79827523D01*
X155714761Y-80065619D02*
X156429047Y-80303714D01*
X156429047Y-79684666D01*
%TO.C,Q2*%
X155860761Y-55405619D02*
X155765523Y-55358000D01*
X155670285Y-55262761D01*
X155527428Y-55119904D01*
X155432190Y-55072285D01*
X155336952Y-55072285D01*
X155384571Y-55310380D02*
X155289333Y-55262761D01*
X155194095Y-55167523D01*
X155146476Y-54977047D01*
X155146476Y-54643714D01*
X155194095Y-54453238D01*
X155289333Y-54358000D01*
X155384571Y-54310380D01*
X155575047Y-54310380D01*
X155670285Y-54358000D01*
X155765523Y-54453238D01*
X155813142Y-54643714D01*
X155813142Y-54977047D01*
X155765523Y-55167523D01*
X155670285Y-55262761D01*
X155575047Y-55310380D01*
X155384571Y-55310380D01*
X156194095Y-54405619D02*
X156241714Y-54358000D01*
X156336952Y-54310380D01*
X156575047Y-54310380D01*
X156670285Y-54358000D01*
X156717904Y-54405619D01*
X156765523Y-54500857D01*
X156765523Y-54596095D01*
X156717904Y-54738952D01*
X156146476Y-55310380D01*
X156765523Y-55310380D01*
%TO.C,R10*%
X150995142Y-81324380D02*
X150661809Y-80848190D01*
X150423714Y-81324380D02*
X150423714Y-80324380D01*
X150804666Y-80324380D01*
X150899904Y-80372000D01*
X150947523Y-80419619D01*
X150995142Y-80514857D01*
X150995142Y-80657714D01*
X150947523Y-80752952D01*
X150899904Y-80800571D01*
X150804666Y-80848190D01*
X150423714Y-80848190D01*
X151947523Y-81324380D02*
X151376095Y-81324380D01*
X151661809Y-81324380D02*
X151661809Y-80324380D01*
X151566571Y-80467238D01*
X151471333Y-80562476D01*
X151376095Y-80610095D01*
X152566571Y-80324380D02*
X152661809Y-80324380D01*
X152757047Y-80372000D01*
X152804666Y-80419619D01*
X152852285Y-80514857D01*
X152899904Y-80705333D01*
X152899904Y-80943428D01*
X152852285Y-81133904D01*
X152804666Y-81229142D01*
X152757047Y-81276761D01*
X152661809Y-81324380D01*
X152566571Y-81324380D01*
X152471333Y-81276761D01*
X152423714Y-81229142D01*
X152376095Y-81133904D01*
X152328476Y-80943428D01*
X152328476Y-80705333D01*
X152376095Y-80514857D01*
X152423714Y-80419619D01*
X152471333Y-80372000D01*
X152566571Y-80324380D01*
%TO.C,U4*%
D12*
X153033000Y-90096000D02*
G75*
G03*
X153033000Y-90096000I-100000J0D01*
G01*
D13*
X151118000Y-90096000D02*
X149618000Y-90096000D01*
X151118000Y-87196000D02*
X149618000Y-87196000D01*
D14*
%TO.C,U3*%
X154118000Y-61392000D02*
G75*
G03*
X154118000Y-61392000I-70000J0D01*
G01*
D12*
%TO.C,U2*%
X151077000Y-73434000D02*
G75*
G03*
X151077000Y-73434000I-100000J0D01*
G01*
D13*
X156932000Y-77684000D02*
X156632000Y-77684000D01*
X156932000Y-72684000D02*
X156632000Y-72684000D01*
X151932000Y-77684000D02*
X152232000Y-77684000D01*
X151932000Y-72684000D02*
X152232000Y-72684000D01*
X156932000Y-77684000D02*
X156932000Y-77384000D01*
X156932000Y-72684000D02*
X156932000Y-72984000D01*
X151932000Y-77684000D02*
X151932000Y-77384000D01*
X151932000Y-72684000D02*
X151932000Y-72984000D01*
D15*
%TO.C,U1*%
X149879000Y-58573000D02*
X148317000Y-58573000D01*
X148317000Y-55728000D02*
X149879000Y-55728000D01*
D16*
X149648000Y-58300000D02*
G75*
G03*
X149648000Y-58300000I-50000J0D01*
G01*
D17*
%TO.C,R14*%
X151509641Y-86740000D02*
X151202359Y-86740000D01*
X151509641Y-85980000D02*
X151202359Y-85980000D01*
%TO.C,R15*%
X153523836Y-86000000D02*
X153308164Y-86000000D01*
X153523836Y-86720000D02*
X153308164Y-86720000D01*
%TO.C,C19*%
X147934000Y-88245836D02*
X147934000Y-88030164D01*
X147214000Y-88245836D02*
X147214000Y-88030164D01*
%TO.C,AE1*%
X147410000Y-73252000D02*
X144690000Y-73252000D01*
X144690000Y-73252000D02*
X144690000Y-79962000D01*
X147410000Y-79962000D02*
X147410000Y-73252000D01*
%TO.C,R13*%
X151230359Y-90552000D02*
X151537641Y-90552000D01*
X151230359Y-91312000D02*
X151537641Y-91312000D01*
%TO.C,C16*%
X154030000Y-49168164D02*
X154030000Y-49383836D01*
X153310000Y-49168164D02*
X153310000Y-49383836D01*
%TO.C,C1*%
X147172000Y-58566164D02*
X147172000Y-58781836D01*
X146452000Y-58566164D02*
X146452000Y-58781836D01*
%TO.C,GND1*%
X159450000Y-65278000D02*
G75*
G03*
X159450000Y-65278000I-700000J0D01*
G01*
%TO.C,C4*%
X152548000Y-62591836D02*
X152548000Y-62376164D01*
X153268000Y-62591836D02*
X153268000Y-62376164D01*
%TO.C,C17*%
X150982000Y-72243836D02*
X150982000Y-72028164D01*
X150262000Y-72243836D02*
X150262000Y-72028164D01*
%TO.C,C15*%
X149966000Y-72215836D02*
X149966000Y-72000164D01*
X149246000Y-72215836D02*
X149246000Y-72000164D01*
%TO.C,3.3V1*%
X159450000Y-60198000D02*
G75*
G03*
X159450000Y-60198000I-700000J0D01*
G01*
%TO.C,R12*%
X153308164Y-90572000D02*
X153523836Y-90572000D01*
X153308164Y-91292000D02*
X153523836Y-91292000D01*
%TO.C,RX1*%
X159450000Y-72644000D02*
G75*
G03*
X159450000Y-72644000I-700000J0D01*
G01*
%TO.C,R1*%
X151054000Y-58785836D02*
X151054000Y-58570164D01*
X151774000Y-58785836D02*
X151774000Y-58570164D01*
%TO.C,C8*%
X148230000Y-72000164D02*
X148230000Y-72215836D01*
X148950000Y-72000164D02*
X148950000Y-72215836D01*
%TO.C,Y1*%
X153364000Y-71246000D02*
X157364000Y-71246000D01*
X153364000Y-67946000D02*
X153364000Y-71246000D01*
%TO.C,C18*%
X154030000Y-108096164D02*
X154030000Y-108311836D01*
X153310000Y-108096164D02*
X153310000Y-108311836D01*
%TO.C,C5*%
X147934000Y-72000164D02*
X147934000Y-72215836D01*
X147214000Y-72000164D02*
X147214000Y-72215836D01*
%TO.C,R11*%
X154278359Y-65658000D02*
X154585641Y-65658000D01*
X154278359Y-64898000D02*
X154585641Y-64898000D01*
%TO.C,D1*%
X154476000Y-51402000D02*
X155626000Y-51402000D01*
X159976000Y-44102000D02*
X159976000Y-51402000D01*
X154476000Y-44102000D02*
X154476000Y-51402000D01*
%TO.C,R5*%
X156084000Y-80671641D02*
X156084000Y-80364359D01*
X156844000Y-80671641D02*
X156844000Y-80364359D01*
%TO.C,C14*%
X157732000Y-62878580D02*
X157732000Y-62597420D01*
X158752000Y-62878580D02*
X158752000Y-62597420D01*
%TO.C,D2*%
X150324000Y-44102000D02*
X149174000Y-44102000D01*
X150324000Y-51402000D02*
X150324000Y-44102000D01*
X144824000Y-51402000D02*
X144824000Y-44102000D01*
%TO.C,R3*%
X155068000Y-80671641D02*
X155068000Y-80364359D01*
X155828000Y-80671641D02*
X155828000Y-80364359D01*
%TO.C,R7*%
X153061641Y-59054000D02*
X152754359Y-59054000D01*
X153061641Y-58294000D02*
X152754359Y-58294000D01*
%TO.C,Q1*%
X147538000Y-60452000D02*
X147538000Y-61102000D01*
X150658000Y-60452000D02*
X150658000Y-61102000D01*
X150658000Y-60452000D02*
X150658000Y-58777000D01*
X147538000Y-60452000D02*
X147538000Y-59802000D01*
%TO.C,TX1*%
X159450000Y-70612000D02*
G75*
G03*
X159450000Y-70612000I-700000J0D01*
G01*
%TO.C,C12*%
X145794000Y-71487420D02*
X145794000Y-71768580D01*
X146814000Y-71487420D02*
X146814000Y-71768580D01*
%TO.C,J1*%
X156150000Y-84537000D02*
X157480000Y-84537000D01*
X158810000Y-87137000D02*
X158810000Y-92277000D01*
X156150000Y-85867000D02*
X156150000Y-84537000D01*
X156150000Y-87137000D02*
X156150000Y-92277000D01*
X156150000Y-87137000D02*
X158810000Y-87137000D01*
X156150000Y-92277000D02*
X158810000Y-92277000D01*
%TO.C,C3*%
X152148000Y-62878580D02*
X152148000Y-62597420D01*
X151128000Y-62878580D02*
X151128000Y-62597420D01*
%TO.C,C11*%
X151462000Y-49383836D02*
X151462000Y-49168164D01*
X150742000Y-49383836D02*
X150742000Y-49168164D01*
%TO.C,C2*%
X153668000Y-80885420D02*
X153668000Y-81166580D01*
X154688000Y-80885420D02*
X154688000Y-81166580D01*
%TO.C,FB1*%
X153907258Y-59929500D02*
X153432742Y-59929500D01*
X153907258Y-60974500D02*
X153432742Y-60974500D01*
%TO.C,GPIO1*%
X159450000Y-78740000D02*
G75*
G03*
X159450000Y-78740000I-700000J0D01*
G01*
%TO.C,R6*%
X151764000Y-56795641D02*
X151764000Y-56488359D01*
X151004000Y-56795641D02*
X151004000Y-56488359D01*
%TO.C,R12*%
X158642164Y-74062000D02*
X158857836Y-74062000D01*
X158642164Y-74782000D02*
X158857836Y-74782000D01*
%TO.C,R8*%
X147192000Y-56795641D02*
X147192000Y-56488359D01*
X146432000Y-56795641D02*
X146432000Y-56488359D01*
%TO.C,BT1*%
X160020000Y-116840000D02*
X144780000Y-116840000D01*
X144780000Y-116840000D02*
X144780000Y-40640000D01*
X144780000Y-40640000D02*
X160020000Y-40640000D01*
X160020000Y-40640000D02*
X160020000Y-116840000D01*
%TO.C,C6*%
X151490000Y-108283836D02*
X151490000Y-108068164D01*
X150770000Y-108283836D02*
X150770000Y-108068164D01*
%TO.C,D4*%
X154476000Y-106078000D02*
X154476000Y-113378000D01*
X159976000Y-106078000D02*
X159976000Y-113378000D01*
X154476000Y-113378000D02*
X155626000Y-113378000D01*
%TO.C,D3*%
X150324000Y-106078000D02*
X149174000Y-106078000D01*
X144824000Y-113378000D02*
X144824000Y-106078000D01*
X150324000Y-113378000D02*
X150324000Y-106078000D01*
%TO.C,R9*%
X149960359Y-70992000D02*
X150267641Y-70992000D01*
X149960359Y-70232000D02*
X150267641Y-70232000D01*
%TO.C,R4*%
X157860000Y-80671641D02*
X157860000Y-80364359D01*
X157100000Y-80671641D02*
X157100000Y-80364359D01*
%TO.C,Q2*%
X154056000Y-55858000D02*
X157186000Y-55858000D01*
X154726000Y-59458000D02*
X157186000Y-59458000D01*
%TO.C,R10*%
X151484359Y-81662000D02*
X151791641Y-81662000D01*
X151484359Y-82422000D02*
X151791641Y-82422000D01*
%TD*%
M02*
